# xmcd
#
# Track frame offsets:
#	150
#	19367
#	47255
#	63873
#	84286
#	100371
#	110600
#	129400
#	143172
#	168705
#	184028
#	198294
#	214486
#	232440
#
# Disc length: 3751 seconds
# Revision: 0
# Processed by: cddbd v1.5.2PL0 Copyright (c) Steve Scherf et al.
# Submitted via: dBpowerAMP V12.0
#
DISCID=ca0ea50e
DTITLE=Mike Elrington - Two Lucky Stars
DYEAR=2015
DGENRE=
TTITLE0=Still in Love With You
TTITLE1=Better Days
TTITLE2=Jennifer
TTITLE3=The Only Way we Are
TTITLE4=Tow Lucky Stars
TTITLE5=Build You up to Cut You Down
TTITLE6=I Got a Woman
TTITLE7=Believe
TTITLE8=Good Morning Little Schoolgirl
TTITLE9=Anywhere But Here
TTITLE10=Hold on I'm Coming
TTITLE11=Find my Lover Someday
TTITLE12=Danger Zone
TTITLE13=Where Did You Sleep Last Night? (Live)
EXTD=
EXTT0=
EXTT1=
EXTT2=
EXTT3=
EXTT4=
EXTT5=
EXTT6=
EXTT7=
EXTT8=
EXTT9=
EXTT10=
EXTT11=
EXTT12=
EXTT13=
PLAYORDER=
